<svg xmlns="http://www.w3.org/2000/svg" class="graphdiagram" viewBox="-5487.95085551125 -2211.5576785019953 7132.378366906289 4730.6153570039905"><g class="layer relationships"><g class="related-pair"><g class="relationship" transform="translate(-412.10003051757815,14) rotate(-0.3218227318459923)"><path class="relationship" d="M 154.82751139503873 4 L 347.2809444441082 4 L 347.2809444441082 16 L 379.2809444441082 0 L 347.2809444441082 -16 L 347.2809444441082 -4 L 154.82751139503873 -4 Z" fill="rgb(0, 0, 0)" stroke="rgb(51, 51, 51)" stroke-width="0px"/><text class="type" text-anchor="middle" baseline-shift="30%" alignment-baseline="alphabetic" x="251.05422791957346" y="0" font-size="50px" font-family="&quot;Gill Sans&quot;, &quot;Gill Sans MT&quot;, Calibri, sans-serif">Payes</text></g></g></g><g class="layer nodes"><circle class="node node-id-0" r="139.82751139503873" fill="rgb(255, 255, 255)" stroke="rgb(0, 0, 0)" stroke-width="8px" cx="-412.10003051757815" cy="14"/><g class="caption"><text class="caption node" text-anchor="middle" alignment-baseline="central" x="-412.10003051757815" y="14" fill="rgb(51, 51, 51)" font-size="50px" font-family="&quot;Gill Sans&quot;, &quot;Gill Sans MT&quot;, Calibri, sans-serif">Placeholder</text></g><circle class="node node-id-1" r="139.82751139503873" fill="rgb(255, 255, 255)" stroke="rgb(0, 0, 0)" stroke-width="8px" cx="122" cy="11"/><g class="caption"><text class="caption node" text-anchor="middle" alignment-baseline="central" x="122" y="11" fill="rgb(51, 51, 51)" font-size="50px" font-family="&quot;Gill Sans&quot;, &quot;Gill Sans MT&quot;, Calibri, sans-serif">Placeholder</text></g></g><g class="layer properties"><g class="speech-bubble node-speech-bubble" transform="translate(-551.9275419126169,14) "><path class="speech-bubble-outline" transform="scale(-1,1) " d="M 0 0 L 20 -10 L 20 -25 A 10 10 0 0 1 30 -35 L 267.79296875 -35 A 10 10 0 0 1 277.79296875 -25 L 277.79296875 25 A 10 10 0 0 1 267.79296875 35 L 30 35 A 10 10 0 0 1 20 25 L 20 10 Z" fill="rgb(255, 255, 255)" stroke="rgb(0, 0, 0)" stroke-width="3px"/><text class="speech-bubble-content property-key" x="-189.8388671875" y="0" alignment-baseline="central" text-anchor="end" font-size="50px" font-family="&quot;Gill Sans&quot;, &quot;Gill Sans MT&quot;, Calibri, sans-serif" xml:space="preserve">{id: </text><text class="speech-bubble-content property-value" x="-189.8388671875" y="0" alignment-baseline="central" font-size="50px" font-family="&quot;Gill Sans&quot;, &quot;Gill Sans MT&quot;, Calibri, sans-serif">Integer}</text></g></g><g class="layer overlay"><circle class="node overlay" r="143.82751139503873" stroke="none" fill="rgba(255, 255, 255, 0)" cx="-412.10003051757815" cy="14"/><circle class="node ring" r="148.82751139503873" fill="none" stroke="rgba(255, 255, 255, 0)" stroke-width="10px" cx="-412.10003051757815" cy="14"/><circle class="node overlay" r="143.82751139503873" stroke="none" fill="rgba(255, 255, 255, 0)" cx="122" cy="11"/><circle class="node ring" r="148.82751139503873" fill="none" stroke="rgba(255, 255, 255, 0)" stroke-width="10px" cx="122" cy="11"/><path class="relationship overlay" fill="rgba(255, 255, 255, 0)" stroke="rgba(255, 255, 255, 0)" stroke-width="10px" transform="translate(-412.10003051757815,14) rotate(-0.3218227318459923)" d="M 154.82751139503873 4 L 347.2809444441082 4 L 347.2809444441082 16 L 379.2809444441082 0 L 347.2809444441082 -16 L 347.2809444441082 -4 L 154.82751139503873 -4 Z"/></g></svg>